# xmcd
#
# Track frame offsets: 
#        150
#        21512
#        42887
#
# Disc length: 936 seconds
#
# Revision: 0
# Processed by: cddbd v1.5.2PL0 Copyright (c) Steve Scherf et al.
# Submitted via: ExactAudioCopyFreeDBPlugin 1.0
#
DISCID=1f03a603
DTITLE=Gregg Willis - Give Her What She Wants
DYEAR=1990
DGENRE=Soul
TTITLE0=Give Her What She Wants
TTITLE1=Give Her What She Wants (Instrumental)
TTITLE2=Give Her What She Wants (Extended Mix)
EXTD=
EXTT0=
EXTT1=
EXTT2=
PLAYORDER=
